{"title":"Robocop 2014 Webrip XVID AC3 ACAB","uid":9860464,"size":843261924,"categoryP":"video","categoryS":"movies","magnet":"?xt=urn:btih:c0e904b581445c2835da8f01c08727f6c3720c70&amp;dn=Robocop+2014+Webrip+XVID+AC3+ACAB&amp;tr=udp%3A%2F%2Ftracker.openbittorrent.com%3A80&amp;tr=udp%3A%2F%2Fopen.demonii.com%3A1337&amp;tr=udp%3A%2F%2Ftracker.coppersurfer.tk%3A6969&amp;tr=udp%3A%2F%2Fexodus.desync.com%3A6969","seeders":1,"leechers":0,"uploader":"TeX","files":2,"time":1396286596,"description":" &lt;a href=&quot;http://s1.postimg.org/s3iydnej3/vcxvcxvxv.jpg&quot; rel=&quot;nofollow&quot; target=&quot;_NEW&quot;&gt;http://s1.postimg.org/s3iydnej3/vcxvcxvxv.jpg&lt;/a&gt;\n\nFormat                                   : AVI\nFormat/Info                              : Audio Video Interleave\nFile size                                : 798 MiB\nDuration                                 : 1h 48mn\nOverall bit rate                         : 1 030 Kbps\n\nVideo\nID                                       : 0\nFormat                                   : MPEG-4 Visual\nFormat profile                           : Advanced Simple@L5\nFormat settings, BVOP                    : 2\nFormat settings, QPel                    : No\nFormat settings, GMC                     : No warppoints\nFormat settings, Matrix                  : Default (H.263)\nMuxing mode                              : Packed bitstream\nCodec ID                                 : XVID\nCodec ID/Hint                            : XviD\nDuration                                 : 1h 48mn\nBit rate                                 : 893 Kbps\nWidth                                    : 640 pixels\nHeight                                   : 272 pixels\nDisplay aspect ratio                     : 2.35:1\nFrame rate                               : 29.970 fps\nColor space                              : YUV\nChroma subsampling                       : 4:2:0\nBit depth                                : 8 bits\nScan type                                : Progressive\nCompression mode                         : Lossy\nBits/(Pixel*Frame)                       : 0.171\nStream size                              : 692 MiB (87%)\nWriting library                          : XviD 1.2.1 (UTC 2008-12-04)\n\nAudio\nID                                       : 1\nFormat                                   : AC-3\nFormat/Info                              : Audio Coding 3\nMode extension                           : CM (complete main)\nFormat settings, Endianness              : Big\nCodec ID                                 : 2000\nDuration                                 : 1h 48mn\nBit rate mode                            : Constant\nBit rate                                 : 128 Kbps\nChannel(s)                               : 2 channels\nChannel positions                        : Front: L R\nSampling rate                            : 44.1 KHz\nBit depth                                : 16 bits\nCompression mode                         : Lossy\nStream size                              : 99.2 MiB (12%)\n &lt;a href=&quot;\nhttp://s1.postimg.org/subojfgwf/bvbcvbcbc.png&quot; rel=&quot;nofollow&quot; target=&quot;_NEW&quot;&gt;\nhttp://s1.postimg.org/subojfgwf/bvbcvbcbc.png&lt;/a&gt; &lt;a href=&quot;\nhttp://s1.postimg.org/66wfda1cf/bvbcvbv.png&quot; rel=&quot;nofollow&quot; target=&quot;_NEW&quot;&gt;\nhttp://s1.postimg.org/66wfda1cf/bvbcvbv.png&lt;/a&gt;\n &lt;a href=&quot;\nhttp://s1.postimg.org/6nhmzpp3j/bvbvcbcvb.png&quot; rel=&quot;nofollow&quot; target=&quot;_NEW&quot;&gt;\nhttp://s1.postimg.org/6nhmzpp3j/bvbvcbcvb.png&lt;/a&gt;","torrent":{"xt":"urn:btih:c0e904b581445c2835da8f01c08727f6c3720c70","amp;dn":"Robocop+2014+Webrip+XVID+AC3+ACAB","amp;tr":["udp%3A%2F%2Ftracker.openbittorrent.com%3A80","udp%3A%2F%2Fopen.demonii.com%3A1337","udp%3A%2F%2Ftracker.coppersurfer.tk%3A6969","udp%3A%2F%2Fexodus.desync.com%3A6969"],"infoHash":"c0e904b581445c2835da8f01c08727f6c3720c70","infoHashBuffer":{"type":"Buffer","data":[192,233,4,181,129,68,92,40,53,218,143,1,192,135,39,246,195,114,12,112]},"announce":[],"urlList":[]}}